<?xml version="1.0" encoding="UTF-8" standalone="no"?>
<svg width="64px" height="64px" viewBox="0 0 64 64" version="1.1" xmlns="http://www.w3.org/2000/svg" xmlns:xlink="http://www.w3.org/1999/xlink">
    <!-- Generator: Sketch 39.1 (31720) - http://www.bohemiancoding.com/sketch -->
    <title>noun_578440_cc</title>
    <desc>Created with Sketch.</desc>
    <defs></defs>
    <g id="Page-1" stroke="none" stroke-width="1" fill="none" fill-rule="evenodd">
        <g id="noun_578440_cc" fill="#000000">
            <g id="Group">
                <path d="M36.89,35.685 L32.234,39.954 C32.089,40.085 31.938,40.222 31.783,40.365 C31.185,43.667 28.289,46.178 24.818,46.178 C20.916,46.178 17.74,43.003 17.74,39.1 C17.74,35.503 20.437,32.526 23.913,32.081 C23.98,32.006 24.046,31.934 24.11,31.862 L25.959,29.787 L26.002,29.801 C26.817,28.912 27.754,27.89 28.479,27.099 C27.321,26.746 26.091,26.555 24.819,26.555 C17.901,26.555 12.274,32.182 12.274,39.1 C12.274,46.018 17.901,51.645 24.819,51.645 C31.737,51.645 37.364,46.018 37.364,39.1 C37.363,37.916 37.198,36.771 36.89,35.685 L36.89,35.685 Z" id="Shape"></path>
                <path d="M46.059,27.285 C44.658,28.56 43.261,29.84 41.881,31.107 C43.023,33.535 43.661,36.245 43.661,39.1 C43.661,49.49 35.208,57.943 24.818,57.943 C14.428,57.943 5.975,49.489 5.975,39.1 C5.975,28.711 14.428,20.257 24.818,20.257 C27.76,20.257 30.547,20.935 33.03,22.142 C34.292,20.765 35.569,19.372 36.839,17.976 C33.292,15.949 29.188,14.79 24.818,14.79 C11.414,14.79 0.508,25.696 0.508,39.1 C0.508,52.504 11.414,63.41 24.818,63.41 C38.222,63.41 49.128,52.504 49.128,39.1 C49.129,34.814 48.014,30.784 46.059,27.285 L46.059,27.285 Z" id="Shape"></path>
                <path d="M63.356,12.105 C63.249,11.824 63.098,11.585 62.907,11.394 C62.394,10.881 61.719,10.81 61.067,10.81 C60.122,10.81 59.178,10.804 58.233,10.797 C56.773,10.787 55.263,10.777 53.776,10.792 C53.676,10.793 53.611,10.787 53.572,10.781 L53.492,10.59 L53.301,10.51 C53.295,10.47 53.289,10.406 53.29,10.306 C53.305,8.819 53.294,7.309 53.285,5.848 C53.279,4.904 53.272,3.959 53.272,3.014 C53.272,2.362 53.201,1.687 52.688,1.174 C52.497,0.983 52.258,0.832 51.976,0.725 C50.765,0.267 49.957,1.085 49.568,1.478 C48.908,2.149 48.244,2.816 47.581,3.485 C46.065,5.011 44.498,6.589 42.988,8.18 C42.497,8.7 42.152,9.551 42.13,10.298 C42.096,11.453 42.105,12.621 42.114,13.752 C42.122,14.781 42.131,15.844 42.106,16.884 C42.098,17.222 41.926,17.662 41.705,17.907 C39.125,20.768 36.474,23.654 33.91,26.444 L31.799,28.744 C30.664,29.983 27.986,32.904 27.084,33.885 L27.076,33.882 L26.767,34.229 C26.565,34.455 26.345,34.697 26.112,34.953 C25.392,35.743 24.575,36.638 23.816,37.61 C23.269,38.312 23.563,39.354 24.164,39.955 C24.186,39.977 24.208,39.998 24.23,40.018 C24.801,40.535 25.746,40.832 26.472,40.265 C27.464,39.489 28.376,38.656 29.18,37.92 C29.416,37.704 29.641,37.498 29.858,37.304 L37.638,30.171 C40.429,27.607 43.315,24.956 46.175,22.376 C46.42,22.155 46.86,21.983 47.199,21.975 C48.238,21.95 49.302,21.959 50.331,21.967 C51.461,21.976 52.63,21.985 53.785,21.951 C54.532,21.929 55.383,21.584 55.904,21.092 C57.494,19.583 59.072,18.016 60.598,16.5 C61.266,15.837 61.934,15.173 62.605,14.512 C62.997,14.125 63.814,13.318 63.356,12.105 L63.356,12.105 Z" id="Shape"></path>
            </g>
        </g>
    </g>
</svg>