<?xml version="1.0" encoding="UTF-8" standalone="no"?>
<svg width="80px" height="86px" viewBox="0 0 80 86" version="1.1" xmlns="http://www.w3.org/2000/svg" xmlns:xlink="http://www.w3.org/1999/xlink">
    <!-- Generator: Sketch 39.1 (31720) - http://www.bohemiancoding.com/sketch -->
    <title>noun_560896_cc</title>
    <desc>Created with Sketch.</desc>
    <defs></defs>
    <g id="Page-1" stroke="none" stroke-width="1" fill="none" fill-rule="evenodd">
        <g id="noun_560896_cc" transform="translate(0.000000, -1.000000)" fill="#000000">
            <g id="Group" transform="translate(0.000000, 0.637820)">
                <path d="M19,0.36221 C8.52589,0.36221 0,8.89071 0,19.36801 L0,43.3754 C0,52.6079 6.63512,60.3023 15.375,62.0062 L11.0625,82.7626 C10.7985168,84.0606194 11.4164402,85.3782558 12.5830508,86.0049648 C13.7496614,86.6316737 15.1890433,86.4192319 16.125,85.4822 L39.21875,62.3813 L61,62.3813 C71.47411,62.3813 80,53.8528 80,43.3754 L80,19.36801 C80,8.89071 71.47411,0.36221 61,0.36221 L19,0.36221 L19,0.36221 Z M19,6.36401 L61,6.36401 C68.25389,6.36401 74,12.11191 74,19.36801 L74,43.3754 C74,50.6316 68.25389,56.3795 61,56.3795 L38,56.3795 C37.2036206,56.3775609 36.4391432,56.6924177 35.875,57.2547 L19,74.1349 L21.9375,59.9744 C22.1153644,59.0927331 21.8885498,58.1777485 21.3195,57.4813477 C20.7504501,56.7849469 19.8991616,56.3805536 19,56.3795 C11.74611,56.3795 6,50.6316 6,43.3754 L6,19.36801 C6,12.11191 11.74611,6.36401 19,6.36401 L19,6.36401 Z" id="Shape"></path>
            </g>
        </g>
    </g>
</svg>