<?xml version="1.0" encoding="UTF-8" standalone="no"?>
<svg width="62px" height="62px" viewBox="0 0 62 62" version="1.1" xmlns="http://www.w3.org/2000/svg" xmlns:xlink="http://www.w3.org/1999/xlink">
    <!-- Generator: Sketch 39.1 (31720) - http://www.bohemiancoding.com/sketch -->
    <title>noun_578106_cc</title>
    <desc>Created with Sketch.</desc>
    <defs></defs>
    <g id="Page-1" stroke="none" stroke-width="1" fill="none" fill-rule="evenodd">
        <g id="noun_578106_cc" fill="#000000">
            <g id="Group">
                <path d="M61.882,36.216 C62.032,34.25 60.906,32.536 59.08,31.954 C57.22,31.36 55.272,32.124 54.229,33.855 C54.139,34.005 54.057,34.156 53.982,34.308 C53.769,33.634 53.496,32.974 53.145,32.337 C52.214,30.648 50.881,29.213 49.381,28.016 C44.69,24.274 39.164,22.588 33.318,21.807 C30.195,21.389 29.539,21.431 26.406,21.793 C22.739,22.218 19.263,23.205 16.086,25.156 C15.609,25.449 14.974,25.605 14.409,25.613 C12.718,25.638 11.022,25.483 9.333,25.547 C8.278,25.587 7.187,25.765 6.195,26.115 C4.895,26.574 4.645,27.763 5.5,28.855 C6.095,29.616 6.741,30.339 7.384,31.105 C6.334,32.608 5.444,35.248 3.569,35.792 C3.174,35.906 2.762,35.961 2.36,36.054 C0.978,36.371 -0.043,37.765 0.121,39.132 C0.388,41.365 0.631,43.6 0.967,45.822 C1.072,46.516 1.343,47.239 1.727,47.824 C2.248,48.615 3.145,48.867 4.069,48.857 C5.429,48.842 6.438,49.486 7.404,50.371 C8.881,51.725 10.958,53.058 11.861,55.01 C12.636,56.689 11.782,60.673 14.478,60.91 C16.138,61.056 18.004,61.446 19.625,60.872 C22.01,60.029 22.196,57.376 22.934,55.219 C29.48,55.833 33.285,56.263 39.504,56.331 C39.727,57.17 39.943,57.96 40.147,58.751 C40.981,61.976 48.883,62.304 49.776,59.142 C50.424,56.844 51.001,54.519 51.803,52.274 C52.553,50.173 53.824,48.226 54.353,46.048 C54.762,44.362 54.768,42.504 54.734,40.765 C55.64,42.075 56.918,43.225 58.314,44.083 C58.641,44.285 59.005,44.381 59.363,44.381 C60.037,44.381 60.694,44.041 61.074,43.425 C61.654,42.482 61.359,41.246 60.416,40.665 C60.159,40.508 59.892,40.323 59.626,40.118 C60.946,39.267 61.767,37.724 61.882,36.216 L61.882,36.216 Z M13.849,37.113 C12.325,37.082 11.107,35.846 11.113,34.336 C11.118,32.795 12.369,31.576 13.928,31.592 C15.428,31.607 16.672,32.885 16.646,34.383 C16.62,35.877 15.322,37.144 13.849,37.113 L13.849,37.113 Z M39.255,31.762 C38.948,32.77 37.881,33.338 36.873,33.03 C32.39,31.663 28.191,31.659 24.037,33.019 C23.84,33.083 23.64,33.114 23.443,33.114 C22.64,33.114 21.892,32.602 21.629,31.797 C21.302,30.795 21.847,29.718 22.849,29.389 C27.708,27.8 32.8,27.796 37.986,29.378 C38.995,29.687 39.562,30.753 39.255,31.762 L39.255,31.762 Z" id="Shape"></path>
                <circle id="Oval" cx="30.685" cy="8.833" r="8.182"></circle>
            </g>
        </g>
    </g>
</svg>