<?xml version="1.0" encoding="UTF-8" standalone="no"?>
<svg width="68px" height="81px" viewBox="0 0 68 81" version="1.1" xmlns="http://www.w3.org/2000/svg" xmlns:xlink="http://www.w3.org/1999/xlink">
    <!-- Generator: Sketch 39.1 (31720) - http://www.bohemiancoding.com/sketch -->
    <title>Shape</title>
    <desc>Created with Sketch.</desc>
    <defs></defs>
    <g id="Page-1" stroke="none" stroke-width="1" fill="none" fill-rule="evenodd">
        <path d="M67.8,65.384 C65.844,53.047 55.568,43.719 43.848,40.269 C48.884,34.691 51.564,25.593 51.574,19.425 C51.589,9.969 43.788,0.147 33.845,0.147 C23.902,0.147 16.101,9.969 16.116,19.425 C16.126,25.62 18.828,34.77 23.907,40.342 C12.29,43.849 2.142,53.133 0.2,65.384 C-0.604,70.458 5.318,73.826 9.15,75.551 C16.668,78.934 25.255,80.086 33.435,80.146 C41.714,80.206 50.37,79.135 58.051,75.898 C62.077,74.2 68.651,70.752 67.8,65.384 L67.8,65.384 Z" id="Shape" fill="#000000"></path>
    </g>
</svg>